<?xml version="1.0" encoding="UTF-8" standalone="no"?>
<!-- Created with Inkscape (http://www.inkscape.org/) -->

<svg
   xmlns:dc="http://purl.org/dc/elements/1.1/"
   xmlns:cc="http://creativecommons.org/ns#"
   xmlns:rdf="http://www.w3.org/1999/02/22-rdf-syntax-ns#"
   xmlns:svg="http://www.w3.org/2000/svg"
   xmlns="http://www.w3.org/2000/svg"
   xmlns:sodipodi="http://sodipodi.sourceforge.net/DTD/sodipodi-0.dtd"
   xmlns:inkscape="http://www.inkscape.org/namespaces/inkscape"
   version="1.1"
   id="svg38"
   xml:space="preserve"
   width="243.73334"
   height="164.46667"
   viewBox="0 0 243.73334 164.46667"
   sodipodi:docname="tim-logo_alateksti.svg"
   inkscape:version="0.92.2 (5c3e80d, 2017-08-06)"><metadata
     id="metadata44"><rdf:RDF><cc:Work
         rdf:about=""><dc:format>image/svg+xml</dc:format><dc:type
           rdf:resource="http://purl.org/dc/dcmitype/StillImage" /><dc:title></dc:title></cc:Work></rdf:RDF></metadata><defs
     id="defs42" /><sodipodi:namedview
     pagecolor="#ffffff"
     bordercolor="#666666"
     borderopacity="1"
     objecttolerance="10"
     gridtolerance="10"
     guidetolerance="10"
     inkscape:pageopacity="0"
     inkscape:pageshadow="2"
     inkscape:window-width="3840"
     inkscape:window-height="2055"
     id="namedview40"
     showgrid="false"
     inkscape:zoom="10.810701"
     inkscape:cx="121.86667"
     inkscape:cy="82.233337"
     inkscape:window-x="-13"
     inkscape:window-y="-13"
     inkscape:window-maximized="1"
     inkscape:current-layer="g46" /><g
     id="g46"
     inkscape:groupmode="layer"
     inkscape:label="ink_ext_XXXXXX"
     transform="matrix(1.3333333,0,0,-1.3333333,0,164.46667)"><g
       id="g48"
       transform="scale(0.1)"><path
         d="M 887.273,577.777 740.027,617.23 876.121,1125.18 1023.35,1085.75 887.273,577.777"
         style="fill:#5dc2c1;fill-opacity:1;fill-rule:nonzero;stroke:none"
         id="path50"
         inkscape:connector-curvature="0" /><path
         d="M 875.93,538.656 765.242,416.762 730.305,577.719 Z"
         style="fill:#5dc2c1;fill-opacity:1;fill-rule:nonzero;stroke:none"
         id="path52"
         inkscape:connector-curvature="0" /><path
         d="M 694.871,921.859 227.141,921.84 V 770.434 h 158.14 V 399.418 l 151.449,-0.02 -0.019,371.016 h 158.16 v 151.445"
         style="fill:#5dc2c1;fill-opacity:1;fill-rule:nonzero;stroke:none"
         id="path54"
         inkscape:connector-curvature="0" /><path
         d="m 1595.69,399.398 -0.02,522.461 H 1443.86 L 1327.67,805.688 1211.49,921.84 h -151.66 l -0.02,-522.422 151.45,-0.02 v 308.555 l 116.43,-116.426 18.34,18.34 88.75,88.731 -0.02,0.019 9.51,9.492 -0.02,-308.691 151.44,-0.02"
         style="fill:#eb541c;fill-opacity:1;fill-rule:nonzero;stroke:none"
         id="path56"
         inkscape:connector-curvature="0" /><path
         d="m 351.16,254.047 -5.269,-22.777 h -4.082 c -0.039,1.371 -0.239,3.128 -0.571,5.277 -0.332,2.129 -0.8,4.043 -1.441,5.723 -0.664,1.816 -1.543,3.378 -2.617,4.687 -1.075,1.309 -2.367,2.07 -3.867,2.305 -1.172,0.156 -2.676,0.273 -4.512,0.351 -1.836,0.098 -3.535,0.137 -5.102,0.137 h -3.711 l -15.679,-67.789 -0.176,-1.02 -0.063,-1.089 c 0,-0.961 0.176,-1.743 0.547,-2.372 0.332,-0.601 1.02,-1.128 2.016,-1.601 0.777,-0.328 2.207,-0.719 4.297,-1.149 2.066,-0.468 3.75,-0.718 5.054,-0.761 l -0.957,-3.91 h -39.683 l 0.957,3.91 c 1.172,0.101 2.887,0.25 5.137,0.492 2.246,0.23 3.882,0.519 4.902,0.879 1.582,0.601 2.769,1.398 3.57,2.422 0.781,1.047 1.328,2.238 1.645,3.687 l 15.8,68.301 h -3.144 c -1.191,0 -2.68,-0.039 -4.453,-0.117 -1.778,-0.039 -3.598,-0.156 -5.449,-0.371 -1.289,-0.157 -2.832,-0.918 -4.575,-2.344 -1.738,-1.387 -3.457,-3.047 -5.214,-4.922 -1.661,-1.855 -3.165,-3.75 -4.493,-5.664 -1.343,-1.914 -2.398,-3.594 -3.14,-5.062 h -4.16 l 5.269,22.777 h 73.164"
         style="fill:#2e2d2d;fill-opacity:1;fill-rule:nonzero;stroke:none"
         id="path58"
         inkscape:connector-curvature="0" /><path
         d="m 404.734,176.922 -0.894,-3.774 c -3.559,-1.429 -6.328,-2.437 -8.305,-3.109 -1.972,-0.66 -3.965,-0.969 -5.972,-0.969 -3.168,0 -5.532,0.821 -7.114,2.461 -1.582,1.641 -2.383,3.668 -2.383,6.071 0,0.859 0.079,1.82 0.254,2.867 0.141,1.043 0.395,2.312 0.766,3.711 l 5.777,22.07 c 0.45,1.719 0.805,3.262 1.059,4.648 0.254,1.391 0.391,2.481 0.391,3.301 0,2.66 -0.645,4.75 -1.895,6.313 -1.25,1.519 -3.105,2.308 -5.566,2.308 -2.524,0 -5.239,-0.82 -8.149,-2.429 -2.906,-1.641 -5.683,-3.903 -8.301,-6.852 l -10.054,-43.48 h -11.055 l 17.613,76.214 c 0.199,0.938 0.356,1.7 0.512,2.325 l 0.215,2.031 c 0,1.426 -0.254,2.5 -0.727,3.281 l -2.011,1.758 c -0.758,0.332 -1.793,0.586 -3.102,0.703 -1.313,0.098 -2.617,0.254 -3.93,0.41 l 0.84,3.614 22.031,1.308 0.586,-0.898 -9.453,-40.895 h 0.219 c 4.059,3.262 7.676,5.738 10.84,7.442 3.203,1.679 6.812,2.5 10.855,2.5 3.774,0 6.723,-1.102 8.852,-3.262 2.129,-2.211 3.164,-5.078 3.164,-8.66 0,-0.68 -0.102,-1.969 -0.317,-3.789 -0.21,-1.813 -0.562,-3.61 -1.035,-5.391 l -4.976,-19.02 c -0.317,-1.25 -0.649,-2.718 -1.02,-4.359 -0.347,-1.621 -0.523,-2.891 -0.523,-3.801 0,-2.269 0.508,-3.789 1.48,-4.59 0.996,-0.82 2.617,-1.218 4.864,-1.218 0.746,0 1.82,0.117 3.222,0.379 1.406,0.269 2.485,0.519 3.242,0.781"
         style="fill:#2e2d2d;fill-opacity:1;fill-rule:nonzero;stroke:none"
         id="path60"
         inkscape:connector-curvature="0" /><path
         d="m 452.141,218.988 c 0,1.524 -0.215,2.75 -0.664,3.633 l -1.664,1.969 -2.247,0.879 -2.421,0.179 c -4.723,0 -9.098,-2.578 -13.102,-7.796 -4.008,-5.192 -6.547,-11.672 -7.602,-19.43 2.754,0.387 5.879,0.957 9.336,1.68 3.481,0.718 6.368,1.679 8.657,2.867 3.257,1.703 5.703,3.871 7.3,6.531 1.606,2.648 2.407,5.801 2.407,9.488 z m 10.894,-1.488 c 0,-4.199 -1.324,-7.77 -3.941,-10.781 -2.641,-2.989 -6.449,-5.391 -11.449,-7.168 -3.668,-1.321 -7.379,-2.422 -11.129,-3.262 -3.774,-0.84 -7.895,-1.519 -12.446,-2.07 0,-6.231 1.157,-10.989 3.481,-14.289 2.304,-3.309 5.679,-4.95 10.137,-4.95 3.96,0 7.441,0.981 10.449,2.969 3.023,1.981 5.996,4.903 8.906,8.813 l 3.379,-2.481 c -3.149,-4.82 -7.109,-8.672 -11.836,-11.543 -4.731,-2.886 -9.648,-4.316 -14.731,-4.316 -6.992,0 -12.339,1.949 -16.011,5.859 -3.696,3.91 -5.547,9.449 -5.547,16.641 0,4.976 0.777,9.75 2.344,14.258 1.558,4.511 3.828,8.648 6.836,12.398 2.925,3.672 6.503,6.641 10.742,8.891 4.234,2.261 8.926,3.383 14.058,3.383 5.688,0 9.907,-1.141 12.641,-3.481 2.754,-2.301 4.117,-5.25 4.117,-8.871"
         style="fill:#2e2d2d;fill-opacity:1;fill-rule:nonzero;stroke:none"
         id="path62"
         inkscape:connector-curvature="0" /><path
         d="m 549.309,254.047 -0.903,-3.906 c -1.211,-0.039 -2.808,-0.215 -4.785,-0.528 -1.973,-0.312 -3.433,-0.605 -4.375,-0.898 -1.656,-0.488 -2.851,-1.27 -3.555,-2.344 -0.718,-1.074 -1.226,-2.246 -1.543,-3.516 l -14.238,-61.367 -0.176,-0.937 -0.054,-0.961 0.586,-2.301 c 0.386,-0.629 1.089,-1.187 2.129,-1.641 0.585,-0.296 1.89,-0.609 3.906,-1 2.012,-0.367 3.496,-0.578 4.492,-0.679 l -0.883,-3.91 h -37.89 l 0.902,3.91 c 1.094,0.101 2.676,0.191 4.723,0.371 2.05,0.16 3.515,0.39 4.398,0.699 1.52,0.57 2.691,1.313 3.477,2.27 0.796,0.972 1.328,2.152 1.597,3.511 l 14.199,61.45 0.176,1.074 0.063,1.074 -0.508,2.051 c -0.332,0.605 -1.035,1.133 -2.094,1.621 -1.07,0.449 -2.515,0.898 -4.351,1.328 -1.836,0.391 -3.184,0.645 -4.043,0.723 l 0.879,3.906 h 37.871"
         style="fill:#2e2d2d;fill-opacity:1;fill-rule:nonzero;stroke:none"
         id="path64"
         inkscape:connector-curvature="0" /><path
         d="m 609.871,176.922 -0.894,-3.774 c -3.555,-1.429 -6.332,-2.437 -8.301,-3.109 -1.992,-0.66 -3.988,-0.969 -6.02,-0.969 -3.164,0 -5.547,0.821 -7.129,2.461 -1.558,1.641 -2.359,3.668 -2.359,6.071 0,0.859 0.074,1.82 0.23,2.867 0.161,1.043 0.415,2.312 0.786,3.711 l 5.836,22.07 c 0.429,1.719 0.785,3.262 1.039,4.648 0.254,1.391 0.386,2.481 0.386,3.301 0,2.66 -0.625,4.75 -1.875,6.313 -1.265,1.519 -3.125,2.308 -5.586,2.308 -2.379,0 -5.078,-0.82 -8.046,-2.39 -2.965,-1.578 -5.758,-3.86 -8.395,-6.891 l -10.117,-43.48 h -11.035 l 8.867,38.421 c 0.191,0.918 0.484,2.301 0.855,4.122 0.371,1.777 0.571,3.238 0.571,4.339 0,2.2 -0.391,3.688 -1.133,4.45 -0.766,0.738 -2.27,1.109 -4.531,1.109 -0.864,0 -1.973,-0.129 -3.325,-0.449 -1.343,-0.289 -2.398,-0.52 -3.14,-0.723 l 0.879,3.793 c 3.101,1.367 5.82,2.399 8.218,3.07 2.368,0.661 4.414,1.008 6.118,1.008 3.14,0 5.386,-0.84 6.738,-2.558 1.347,-1.7 2.066,-4.039 2.129,-7.051 h 0.347 c 4.336,3.48 8.071,6.082 11.211,7.762 3.149,1.679 6.723,2.5 10.727,2.5 3.766,0 6.734,-1.102 8.848,-3.262 2.125,-2.211 3.203,-5.078 3.203,-8.66 0,-0.68 -0.118,-1.969 -0.332,-3.789 -0.215,-1.813 -0.571,-3.61 -1.055,-5.391 l -4.965,-19.02 c -0.367,-1.25 -0.699,-2.718 -1.055,-4.359 -0.332,-1.621 -0.503,-2.891 -0.503,-3.801 0,-2.269 0.503,-3.789 1.5,-4.59 1,-0.82 2.597,-1.218 4.843,-1.218 0.766,0 1.836,0.117 3.227,0.379 1.402,0.269 2.476,0.519 3.238,0.781"
         style="fill:#2e2d2d;fill-opacity:1;fill-rule:nonzero;stroke:none"
         id="path66"
         inkscape:connector-curvature="0" /><path
         d="m 631.301,168.828 c -3.75,0 -6.488,0.762 -8.227,2.293 -1.734,1.52 -2.613,3.688 -2.613,6.52 0,0.918 0.059,1.781 0.176,2.597 0.133,0.801 0.269,1.703 0.484,2.731 l 9.223,39.531 h -10.586 l 1.25,5.41 h 10.801 l 4.121,17.328 h 10.664 l -4.028,-17.328 h 16.489 l -1.235,-5.41 h -16.343 l -7.637,-32.59 c -0.356,-1.512 -0.649,-2.969 -0.902,-4.359 -0.211,-1.41 -0.348,-2.602 -0.348,-3.59 0,-2.172 0.547,-3.75 1.64,-4.77 1.075,-0.98 3.043,-1.5 5.899,-1.5 1.016,0 2.461,0.129 4.312,0.387 1.86,0.25 3.301,0.582 4.321,0.973 l -0.996,-4.313 c -2.778,-1.078 -5.371,-1.976 -7.832,-2.758 -2.446,-0.761 -5.317,-1.152 -8.633,-1.152"
         style="fill:#2e2d2d;fill-opacity:1;fill-rule:nonzero;stroke:none"
         id="path68"
         inkscape:connector-curvature="0" /><path
         d="m 699.363,218.988 c 0,1.524 -0.215,2.75 -0.64,3.633 l -1.66,1.969 -2.25,0.879 -2.418,0.179 c -4.75,0 -9.125,-2.578 -13.125,-7.796 -4.004,-5.192 -6.528,-11.672 -7.598,-19.43 2.754,0.387 5.879,0.957 9.351,1.68 3.481,0.718 6.348,1.679 8.633,2.867 3.282,1.703 5.703,3.871 7.309,6.531 1.598,2.648 2.398,5.801 2.398,9.488 z m 10.903,-1.488 c 0,-4.199 -1.328,-7.77 -3.95,-10.781 -2.617,-2.989 -6.421,-5.391 -11.445,-7.168 -3.672,-1.321 -7.383,-2.422 -11.133,-3.262 -3.75,-0.84 -7.886,-1.519 -12.422,-2.07 0,-6.231 1.157,-10.989 3.457,-14.289 2.305,-3.309 5.707,-4.95 10.137,-4.95 3.969,0 7.445,0.981 10.449,2.969 3.032,1.981 5.996,4.903 8.926,8.813 l 3.36,-2.481 c -3.141,-4.82 -7.11,-8.672 -11.832,-11.543 -4.727,-2.886 -9.653,-4.316 -14.727,-4.316 -6.992,0 -12.324,1.949 -16.02,5.859 -3.711,3.91 -5.546,9.449 -5.546,16.641 0,4.976 0.8,9.75 2.343,14.258 1.567,4.511 3.828,8.648 6.836,12.398 2.934,3.672 6.504,6.641 10.742,8.891 4.243,2.261 8.95,3.383 14.067,3.383 5.68,0 9.898,-1.141 12.637,-3.481 2.734,-2.301 4.121,-5.25 4.121,-8.871"
         style="fill:#2e2d2d;fill-opacity:1;fill-rule:nonzero;stroke:none"
         id="path70"
         inkscape:connector-curvature="0" /><path
         d="m 769.094,220.18 c 0,-1.078 -0.156,-2.309 -0.489,-3.61 -0.292,-1.332 -0.761,-2.429 -1.347,-3.289 -0.727,-1.07 -1.488,-1.89 -2.348,-2.441 -0.855,-0.578 -2.051,-0.879 -3.633,-0.879 -2.129,0 -3.726,0.527 -4.8,1.609 -1.055,1.051 -1.582,2.239 -1.582,3.551 0,1.231 0.293,2.598 0.875,4.117 0.585,1.512 1.195,3.012 1.835,4.512 -0.464,0 -1.25,-0.109 -2.339,-0.371 -1.078,-0.27 -2.383,-0.758 -3.926,-1.52 -1.527,-0.738 -3.266,-1.879 -5.219,-3.379 -1.949,-1.5 -4.019,-3.5 -6.226,-5.98 l -9.551,-42.441 h -11.035 l 8.629,38.421 c 0.199,0.918 0.492,2.36 0.863,4.258 0.387,1.91 0.562,3.282 0.562,4.203 0,2.2 -0.371,3.688 -1.133,4.45 -0.742,0.738 -2.222,1.109 -4.492,1.109 -0.855,0 -1.953,-0.129 -3.3,-0.449 -1.344,-0.289 -2.379,-0.52 -3.141,-0.723 l 0.894,3.793 c 3.086,1.367 5.801,2.399 8.164,3.07 2.368,0.661 4.399,1.008 6.094,1.008 3.164,0 5.41,-0.859 6.739,-2.578 1.347,-1.711 2.011,-4.293 2.011,-7.73 h 0.371 c 4.692,4.058 8.243,6.91 10.664,8.539 2.446,1.621 4.985,2.422 7.621,2.422 1.266,0 2.481,-0.161 3.668,-0.473 1.196,-0.309 2.192,-0.859 3.008,-1.598 0.879,-0.82 1.528,-1.781 1.938,-2.871 0.41,-1.082 0.625,-2.66 0.625,-4.73"
         style="fill:#2e2d2d;fill-opacity:1;fill-rule:nonzero;stroke:none"
         id="path72"
         inkscape:connector-curvature="0" /><path
         d="m 818.23,215.34 c 0,1.301 -0.132,2.531 -0.41,3.73 -0.269,1.192 -0.855,2.282 -1.715,3.321 -0.8,0.988 -1.875,1.769 -3.261,2.379 -1.367,0.582 -3.125,0.878 -5.215,0.878 -2.871,0 -5.688,-0.937 -8.418,-2.828 -2.719,-1.922 -5.156,-4.461 -7.324,-7.66 -2.051,-3.012 -3.735,-6.621 -5.039,-10.898 -1.313,-4.262 -1.953,-8.614 -1.953,-12.992 0,-2.379 0.132,-4.532 0.41,-6.399 0.269,-1.84 0.8,-3.543 1.597,-5.082 0.743,-1.508 1.836,-2.68 3.243,-3.5 1.425,-0.82 3.207,-1.25 5.39,-1.25 2.192,0 4.516,0.609 6.938,1.859 2.422,1.25 5.132,3.442 8.179,6.563 z m -8.535,-37.43 h -0.41 c -0.855,-0.719 -1.89,-1.621 -3.101,-2.711 -1.196,-1.078 -2.621,-2.129 -4.219,-3.109 -1.543,-0.988 -3.227,-1.852 -5.039,-2.578 -1.821,-0.723 -3.774,-1.09 -5.903,-1.09 -5.703,0 -10.195,2.047 -13.457,6.168 -3.242,4.101 -4.863,9.73 -4.863,16.801 0,4.898 0.902,9.668 2.719,14.3 1.812,4.59 4.312,8.75 7.516,12.438 3.031,3.492 6.64,6.332 10.824,8.492 4.176,2.149 8.472,3.231 12.886,3.231 2.817,0 5.469,-0.372 8.032,-1.122 2.539,-0.761 4.531,-1.601 5.972,-2.55 l 10.879,2.789 0.727,-0.899 -9.028,-38.199 c -0.308,-1.25 -0.64,-2.742 -0.972,-4.5 -0.332,-1.75 -0.512,-3.043 -0.512,-3.859 0,-2.25 0.473,-3.793 1.43,-4.59 0.933,-0.762 2.554,-1.16 4.804,-1.16 0.743,0 1.817,0.117 3.18,0.34 1.391,0.25 2.461,0.488 3.203,0.757 l -0.879,-3.769 c -3.55,-1.43 -6.211,-2.442 -7.949,-3.09 -1.734,-0.621 -3.847,-0.93 -6.347,-0.93 -2.848,0 -5.094,0.821 -6.754,2.481 -1.664,1.66 -2.579,3.789 -2.739,6.359"
         style="fill:#2e2d2d;fill-opacity:1;fill-rule:nonzero;stroke:none"
         id="path74"
         inkscape:connector-curvature="0" /><path
         d="m 864.324,168.422 c -6.914,0 -12.359,2.008 -16.363,6.039 -4.008,4.019 -5.996,9.738 -5.996,17.18 0,4.929 0.738,9.668 2.265,14.179 1.524,4.532 3.629,8.539 6.368,12.051 2.715,3.539 6.172,6.41 10.332,8.66 4.16,2.199 8.789,3.321 13.867,3.321 5.641,0 9.937,-1.192 12.871,-3.582 2.945,-2.379 4.41,-5.411 4.41,-9.02 0,-2.719 -0.64,-5.121 -1.91,-7.172 -1.289,-2.047 -3.203,-3.066 -5.781,-3.066 -2.129,0 -3.735,0.508 -4.785,1.59 -1.079,1.046 -1.606,2.238 -1.606,3.527 0,1.269 0.434,2.992 1.274,5.18 0.859,2.171 1.543,3.941 2.046,5.269 -0.425,1.082 -1.406,1.844 -2.91,2.332 -1.48,0.481 -3.047,0.738 -4.683,0.738 -5.356,0 -9.985,-3.128 -13.868,-9.398 -3.886,-6.23 -5.824,-13.898 -5.824,-22.969 0,-5.601 1.25,-10.051 3.75,-13.351 2.524,-3.309 5.903,-4.95 10.18,-4.95 3.824,0 7.242,1.02 10.215,3.09 2.984,2.051 5.84,4.942 8.57,8.692 l 3.383,-2.481 c -2.719,-4.32 -6.43,-8.031 -11.098,-11.172 -4.683,-3.129 -9.566,-4.687 -14.707,-4.687"
         style="fill:#2e2d2d;fill-opacity:1;fill-rule:nonzero;stroke:none"
         id="path76"
         inkscape:connector-curvature="0" /><path
         d="m 910.906,168.828 c -3.75,0 -6.48,0.762 -8.218,2.293 -1.743,1.52 -2.622,3.688 -2.622,6.52 0,0.918 0.063,1.781 0.176,2.597 0.141,0.801 0.293,1.703 0.488,2.731 l 9.219,39.531 h -10.586 l 1.25,5.41 h 10.805 l 4.117,17.328 h 10.649 l -3.989,-17.328 h 16.465 l -1.226,-5.41 h -16.348 l -7.641,-32.59 c -0.371,-1.512 -0.664,-2.969 -0.894,-4.359 -0.238,-1.41 -0.356,-2.602 -0.356,-3.59 0,-2.172 0.547,-3.75 1.645,-4.77 1.07,-0.98 3.047,-1.5 5.879,-1.5 1.035,0 2.476,0.129 4.312,0.387 1.86,0.25 3.305,0.582 4.336,0.973 l -1.012,-4.313 c -2.753,-1.078 -5.351,-1.976 -7.812,-2.758 -2.441,-0.761 -5.332,-1.152 -8.637,-1.152"
         style="fill:#2e2d2d;fill-opacity:1;fill-rule:nonzero;stroke:none"
         id="path78"
         inkscape:connector-curvature="0" /><path
         d="m 971.863,252.23 c 0,-2.265 -0.718,-4.218 -2.183,-5.878 -1.465,-1.7 -3.285,-2.52 -5.45,-2.52 -2.011,0 -3.75,0.781 -5.214,2.402 -1.45,1.582 -2.192,3.399 -2.192,5.45 0,2.187 0.742,4.062 2.192,5.683 1.464,1.621 3.203,2.442 5.214,2.442 2.262,0 4.098,-0.762 5.504,-2.286 1.426,-1.523 2.129,-3.3 2.129,-5.293 z m -4.195,-75.699 -0.883,-3.793 c -3.633,-1.468 -6.543,-2.476 -8.711,-3.047 -2.168,-0.57 -4.019,-0.863 -5.562,-0.863 -3.149,0 -5.508,0.82 -7.09,2.442 -1.582,1.64 -2.387,3.671 -2.387,6.082 0,0.91 0.078,1.867 0.235,2.847 0.175,0.981 0.429,2.231 0.785,3.731 l 6.25,25.172 c 0.332,1.41 0.625,2.898 0.918,4.457 0.293,1.582 0.449,2.929 0.449,4.019 0,2.25 -0.371,3.692 -1.098,4.422 -0.738,0.738 -2.222,1.109 -4.469,1.109 -0.863,0 -2.011,-0.14 -3.46,-0.429 -1.422,-0.25 -2.516,-0.489 -3.258,-0.7 l 0.879,3.782 c 3.086,1.386 5.839,2.41 8.281,3.09 2.437,0.648 4.375,1 5.801,1 3.242,0 5.586,-0.782 7.031,-2.313 1.465,-1.539 2.184,-3.59 2.184,-6.23 0,-0.68 -0.079,-1.68 -0.235,-2.887 -0.152,-1.231 -0.39,-2.461 -0.699,-3.692 l -6.289,-25.16 c -0.395,-1.539 -0.742,-3.058 -1.035,-4.531 -0.293,-1.5 -0.434,-2.711 -0.434,-3.648 0,-2.25 0.488,-3.789 1.508,-4.629 0.992,-0.821 2.613,-1.25 4.859,-1.25 0.742,0 1.821,0.097 3.203,0.289 1.411,0.199 2.485,0.449 3.227,0.73"
         style="fill:#2e2d2d;fill-opacity:1;fill-rule:nonzero;stroke:none"
         id="path80"
         inkscape:connector-curvature="0" /><path
         d="m 1032.59,218.891 c 0,-6.02 -0.9,-12.09 -2.72,-18.282 -1.81,-6.168 -4.29,-11.578 -7.46,-16.187 -3.18,-4.813 -6.99,-8.66 -11.42,-11.66 -4.42,-2.973 -9.28,-4.481 -14.552,-4.481 -5.176,0 -9.297,1.449 -12.383,4.297 -3.071,2.891 -4.614,6.723 -4.614,11.543 0,0.918 0.122,1.938 0.332,3.09 0.215,1.109 0.372,1.891 0.454,2.289 l 5.132,18.98 c 0.395,1.54 0.746,3.051 1.036,4.508 0.293,1.492 0.453,2.774 0.453,3.891 0,2.223 -0.395,3.711 -1.157,4.449 -0.781,0.742 -2.285,1.113 -4.531,1.113 -0.84,0 -1.949,-0.152 -3.379,-0.48 -1.426,-0.359 -2.476,-0.609 -3.179,-0.82 l 0.878,3.769 c 3.083,1.36 5.821,2.442 8.204,3.18 2.379,0.738 4.296,1.109 5.718,1.109 3.149,0 5.493,-0.719 6.993,-2.168 1.543,-1.48 2.289,-3.609 2.289,-6.359 0,-0.781 -0.063,-1.742 -0.2,-2.871 -0.132,-1.121 -0.386,-2.371 -0.742,-3.711 L 992.063,192 c -0.391,-1.512 -0.708,-2.949 -0.903,-4.34 -0.191,-1.371 -0.293,-2.269 -0.293,-2.66 0,-2.051 0.332,-3.73 0.981,-5.02 0.664,-1.289 1.465,-2.261 2.461,-2.98 0.933,-0.691 1.968,-1.141 3.101,-1.43 1.113,-0.25 2.285,-0.41 3.46,-0.41 2.69,0 5.47,0.84 8.32,2.559 2.85,1.703 5.35,3.902 7.48,6.64 2.32,2.95 4.2,6.25 5.62,9.903 1.43,3.648 2.13,7.718 2.13,12.129 0,2.359 -0.33,4.199 -0.95,5.488 -0.67,1.293 -1.39,2.383 -2.19,3.34 -0.78,0.992 -1.5,2.031 -2.15,3.101 -0.66,1.102 -0.98,2.621 -0.98,4.59 0,2.25 0.75,3.988 2.25,5.16 1.5,1.211 3.09,1.782 4.75,1.782 2.32,0 4.14,-0.942 5.47,-2.821 1.32,-1.871 1.97,-4.59 1.97,-8.14"
         style="fill:#2e2d2d;fill-opacity:1;fill-rule:nonzero;stroke:none"
         id="path82"
         inkscape:connector-curvature="0" /><path
         d="m 1080.24,218.988 c 0,1.524 -0.21,2.75 -0.64,3.633 l -1.66,1.969 -2.25,0.879 -2.44,0.179 c -4.72,0 -9.1,-2.578 -13.1,-7.796 -4.01,-5.192 -6.55,-11.672 -7.6,-19.43 2.75,0.387 5.88,0.957 9.35,1.68 3.46,0.718 6.35,1.679 8.64,2.867 3.26,1.703 5.7,3.871 7.3,6.531 1.6,2.648 2.4,5.801 2.4,9.488 z m 10.9,-1.488 c 0,-4.199 -1.31,-7.77 -3.94,-10.781 -2.64,-2.989 -6.45,-5.391 -11.45,-7.168 -3.67,-1.321 -7.38,-2.422 -11.13,-3.262 -3.75,-0.84 -7.89,-1.519 -12.42,-2.07 0,-6.231 1.15,-10.989 3.45,-14.289 2.31,-3.309 5.69,-4.95 10.14,-4.95 3.97,0 7.44,0.981 10.45,2.969 3.03,1.981 6,4.903 8.93,8.813 l 3.36,-2.481 c -3.15,-4.82 -7.11,-8.672 -11.84,-11.543 -4.73,-2.886 -9.65,-4.316 -14.73,-4.316 -6.99,0 -12.32,1.949 -16.01,5.859 -3.69,3.91 -5.55,9.449 -5.55,16.641 0,4.976 0.78,9.75 2.34,14.258 1.57,4.511 3.83,8.648 6.84,12.398 2.93,3.672 6.5,6.641 10.74,8.891 4.24,2.261 8.93,3.383 14.06,3.383 5.69,0 9.91,-1.141 12.64,-3.481 2.74,-2.301 4.12,-5.25 4.12,-8.871"
         style="fill:#2e2d2d;fill-opacity:1;fill-rule:nonzero;stroke:none"
         id="path84"
         inkscape:connector-curvature="0" /><path
         d="m 1241.71,254.047 -0.9,-3.906 c -1.13,-0.039 -2.6,-0.215 -4.37,-0.528 -1.78,-0.312 -3.11,-0.605 -3.97,-0.898 -1.54,-0.488 -2.64,-1.309 -3.32,-2.422 -0.66,-1.094 -1.15,-2.285 -1.48,-3.555 l -14.22,-61.136 -0.18,-1.051 -0.06,-0.961 0.53,-2.219 1.78,-1.723 c 0.54,-0.367 1.72,-0.718 3.51,-1.078 1.8,-0.351 3.23,-0.558 4.24,-0.601 l -0.96,-3.91 h -37.01 l 0.94,3.91 c 1.43,0.101 3.2,0.25 5.33,0.453 2.13,0.226 3.64,0.558 4.49,0.969 1.39,0.769 2.5,1.621 3.36,2.597 0.84,1 1.41,2.192 1.68,3.614 l 14.57,62.562 h -0.66 l -45.78,-72.734 h -2.79 l -10.55,74.218 h -0.61 l -11.93,-51.578 c -0.47,-2.109 -0.86,-4.14 -1.19,-6.121 -0.31,-1.969 -0.47,-3.59 -0.47,-4.801 0,-1.289 0.14,-2.418 0.43,-3.339 0.25,-0.938 0.64,-1.68 1.17,-2.289 0.7,-0.821 2.21,-1.559 4.49,-2.239 2.29,-0.672 4.09,-1.121 5.39,-1.312 l -0.95,-3.91 h -33.99 l 0.96,3.91 c 1.85,0.191 3.71,0.492 5.57,0.84 1.85,0.351 3.57,1.011 5.13,2.011 1.58,1.071 2.93,2.789 4.03,5.211 1.11,2.41 2.22,6.18 3.37,11.348 l 10.1,43.578 0.45,2.441 0.14,2.168 c 0,1.27 -0.16,2.325 -0.47,3.164 l -1.25,2.168 c -1.02,1.153 -2.4,1.954 -4.18,2.422 -1.76,0.469 -3.36,0.743 -4.8,0.821 l 0.87,3.906 h 28.38 l 9.14,-63.149 32.64,52.875 c 1.23,2.012 2.34,4.063 3.38,6.192 1.02,2.148 1.6,3.496 1.78,4.082 h 28.24"
         style="fill:#2e2d2d;fill-opacity:1;fill-rule:nonzero;stroke:none"
         id="path86"
         inkscape:connector-curvature="0" /><path
         d="m 1284.81,215.34 c 0,1.301 -0.13,2.531 -0.43,3.73 -0.25,1.192 -0.84,2.282 -1.69,3.321 -0.81,0.988 -1.88,1.769 -3.27,2.379 -1.38,0.582 -3.12,0.878 -5.21,0.878 -2.87,0 -5.68,-0.937 -8.4,-2.828 -2.73,-1.922 -5.18,-4.461 -7.34,-7.66 -2.05,-3.012 -3.73,-6.621 -5.04,-10.898 -1.31,-4.262 -1.96,-8.614 -1.96,-12.992 0,-2.379 0.14,-4.532 0.41,-6.399 0.28,-1.84 0.83,-3.543 1.61,-5.082 0.74,-1.508 1.81,-2.68 3.24,-3.5 1.42,-0.82 3.22,-1.25 5.39,-1.25 2.19,0 4.51,0.609 6.93,1.859 2.42,1.25 5.16,3.442 8.19,6.563 z m -8.53,-37.43 h -0.41 c -0.86,-0.719 -1.9,-1.621 -3.09,-2.711 -1.23,-1.078 -2.61,-2.129 -4.24,-3.109 -1.54,-0.988 -3.22,-1.852 -5.03,-2.578 -1.8,-0.723 -3.77,-1.09 -5.9,-1.09 -5.73,0 -10.2,2.047 -13.46,6.168 -3.24,4.101 -4.86,9.73 -4.86,16.801 0,4.898 0.9,9.668 2.73,14.3 1.8,4.59 4.3,8.75 7.5,12.438 3.03,3.492 6.64,6.332 10.82,8.492 4.18,2.149 8.48,3.231 12.89,3.231 2.81,0 5.47,-0.372 8.01,-1.122 2.56,-0.761 4.55,-1.601 6.02,-2.55 l 10.86,2.789 0.7,-0.899 -9.01,-38.199 c -0.33,-1.25 -0.64,-2.742 -0.97,-4.5 -0.33,-1.75 -0.51,-3.043 -0.51,-3.859 0,-2.25 0.47,-3.793 1.43,-4.59 0.93,-0.762 2.53,-1.16 4.78,-1.16 0.76,0 1.84,0.117 3.22,0.34 1.39,0.25 2.45,0.488 3.21,0.757 l -0.9,-3.769 c -3.56,-1.43 -6.21,-2.442 -7.95,-3.09 -1.74,-0.621 -3.85,-0.93 -6.35,-0.93 -2.85,0 -5.1,0.821 -6.76,2.481 -1.66,1.66 -2.57,3.789 -2.73,6.359"
         style="fill:#2e2d2d;fill-opacity:1;fill-rule:nonzero;stroke:none"
         id="path88"
         inkscape:connector-curvature="0" /><path
         d="m 1322.51,168.828 c -3.75,0 -6.5,0.762 -8.24,2.293 -1.72,1.52 -2.6,3.688 -2.6,6.52 0,0.918 0.06,1.781 0.18,2.597 0.11,0.801 0.27,1.703 0.46,2.731 l 9.24,39.531 h -10.6 l 1.25,5.41 h 10.82 l 4.12,17.328 h 10.64 l -4,-17.328 h 16.48 l -1.25,-5.41 h -16.32 l -7.64,-32.59 c -0.35,-1.512 -0.67,-2.969 -0.9,-4.359 -0.23,-1.41 -0.35,-2.602 -0.35,-3.59 0,-2.172 0.53,-3.75 1.64,-4.77 1.07,-0.98 3.05,-1.5 5.88,-1.5 1.03,0 2.46,0.129 4.33,0.387 1.84,0.25 3.29,0.582 4.32,0.973 l -1.01,-4.313 c -2.76,-1.078 -5.38,-1.976 -7.82,-2.758 -2.44,-0.761 -5.31,-1.152 -8.63,-1.152"
         style="fill:#2e2d2d;fill-opacity:1;fill-rule:nonzero;stroke:none"
         id="path90"
         inkscape:connector-curvature="0" /><path
         d="m 1390.58,218.988 c 0,1.524 -0.22,2.75 -0.67,3.633 l -1.64,1.969 -2.26,0.879 -2.43,0.179 c -4.74,0 -9.1,-2.578 -13.1,-7.796 -4.01,-5.192 -6.54,-11.672 -7.6,-19.43 2.75,0.387 5.86,0.957 9.34,1.68 3.47,0.718 6.34,1.679 8.65,2.867 3.26,1.703 5.7,3.871 7.3,6.531 1.59,2.648 2.41,5.801 2.41,9.488 z m 10.88,-1.488 c 0,-4.199 -1.31,-7.77 -3.93,-10.781 -2.62,-2.989 -6.45,-5.391 -11.47,-7.168 -3.65,-1.321 -7.38,-2.422 -11.11,-3.262 -3.75,-0.84 -7.89,-1.519 -12.44,-2.07 0,-6.231 1.15,-10.989 3.46,-14.289 2.32,-3.309 5.7,-4.95 10.17,-4.95 3.93,0 7.42,0.981 10.43,2.969 3.03,1.981 6,4.903 8.91,8.813 l 3.38,-2.481 c -3.17,-4.82 -7.11,-8.672 -11.84,-11.543 -4.74,-2.886 -9.65,-4.316 -14.74,-4.316 -6.98,0 -12.33,1.949 -16.02,5.859 -3.67,3.91 -5.53,9.449 -5.53,16.641 0,4.976 0.78,9.75 2.35,14.258 1.56,4.511 3.82,8.648 6.83,12.398 2.91,3.672 6.51,6.641 10.74,8.891 4.24,2.261 8.93,3.383 14.07,3.383 5.66,0 9.88,-1.141 12.63,-3.481 2.74,-2.301 4.11,-5.25 4.11,-8.871"
         style="fill:#2e2d2d;fill-opacity:1;fill-rule:nonzero;stroke:none"
         id="path92"
         inkscape:connector-curvature="0" /><path
         d="m 1460.28,220.18 c 0,-1.078 -0.13,-2.309 -0.47,-3.61 -0.31,-1.332 -0.76,-2.429 -1.34,-3.289 -0.73,-1.07 -1.51,-1.89 -2.35,-2.441 -0.86,-0.578 -2.07,-0.879 -3.63,-0.879 -2.15,0 -3.73,0.527 -4.8,1.609 -1.06,1.051 -1.61,2.239 -1.61,3.551 0,1.231 0.3,2.598 0.9,4.117 0.59,1.512 1.19,3.012 1.84,4.512 -0.49,0 -1.27,-0.109 -2.35,-0.371 -1.09,-0.27 -2.38,-0.758 -3.92,-1.52 -1.54,-0.738 -3.28,-1.879 -5.22,-3.379 -1.95,-1.5 -4.04,-3.5 -6.25,-5.98 l -9.53,-42.441 h -11.05 l 8.65,38.421 c 0.2,0.918 0.49,2.36 0.86,4.258 0.37,1.91 0.57,3.282 0.57,4.203 0,2.2 -0.39,3.688 -1.14,4.45 -0.76,0.738 -2.24,1.109 -4.51,1.109 -0.86,0 -1.95,-0.129 -3.3,-0.449 -1.33,-0.289 -2.38,-0.52 -3.12,-0.723 l 0.87,3.793 c 3.09,1.367 5.83,2.399 8.19,3.07 2.36,0.661 4.39,1.008 6.09,1.008 3.15,0 5.41,-0.859 6.74,-2.578 1.33,-1.711 2.01,-4.293 2.01,-7.73 h 0.35 c 4.71,4.058 8.27,6.91 10.69,8.539 2.44,1.621 4.96,2.422 7.61,2.422 1.27,0 2.48,-0.161 3.66,-0.473 1.19,-0.309 2.2,-0.859 3.02,-1.598 0.86,-0.82 1.53,-1.781 1.94,-2.871 0.41,-1.082 0.6,-2.66 0.6,-4.73"
         style="fill:#2e2d2d;fill-opacity:1;fill-rule:nonzero;stroke:none"
         id="path94"
         inkscape:connector-curvature="0" /><path
         d="m 1496.57,252.23 c 0,-2.265 -0.72,-4.218 -2.19,-5.878 -1.46,-1.7 -3.28,-2.52 -5.44,-2.52 -2.02,0 -3.75,0.781 -5.22,2.402 -1.46,1.582 -2.19,3.399 -2.19,5.45 0,2.187 0.73,4.062 2.19,5.683 1.47,1.621 3.2,2.442 5.22,2.442 2.24,0 4.08,-0.762 5.5,-2.286 1.43,-1.523 2.13,-3.3 2.13,-5.293 z m -4.2,-75.699 -0.9,-3.793 c -3.61,-1.468 -6.52,-2.476 -8.69,-3.047 -2.16,-0.57 -4.02,-0.863 -5.56,-0.863 -3.15,0 -5.53,0.82 -7.11,2.442 -1.57,1.64 -2.35,3.671 -2.35,6.082 0,0.91 0.06,1.867 0.22,2.847 0.17,0.981 0.43,2.231 0.78,3.731 l 6.25,25.172 c 0.31,1.41 0.62,2.898 0.92,4.457 0.29,1.582 0.45,2.929 0.45,4.019 0,2.25 -0.37,3.692 -1.1,4.422 -0.74,0.738 -2.22,1.109 -4.47,1.109 -0.86,0 -2.01,-0.14 -3.46,-0.429 -1.42,-0.25 -2.52,-0.489 -3.28,-0.7 l 0.9,3.782 c 3.07,1.386 5.84,2.41 8.28,3.09 2.44,0.648 4.38,1 5.8,1 3.23,0 5.57,-0.782 7.03,-2.313 1.47,-1.539 2.19,-3.59 2.19,-6.23 0,-0.68 -0.08,-1.68 -0.23,-2.887 -0.16,-1.231 -0.39,-2.461 -0.71,-3.692 l -6.29,-25.16 c -0.39,-1.539 -0.72,-3.058 -1.03,-4.531 -0.29,-1.5 -0.45,-2.711 -0.45,-3.648 0,-2.25 0.51,-3.789 1.52,-4.629 1,-0.821 2.62,-1.25 4.87,-1.25 0.74,0 1.81,0.097 3.2,0.289 1.41,0.199 2.48,0.449 3.22,0.73"
         style="fill:#2e2d2d;fill-opacity:1;fill-rule:nonzero;stroke:none"
         id="path96"
         inkscape:connector-curvature="0" /><path
         d="m 1545.48,215.34 c 0,1.301 -0.14,2.531 -0.41,3.73 -0.28,1.192 -0.84,2.282 -1.72,3.321 -0.78,0.988 -1.88,1.769 -3.26,2.379 -1.39,0.582 -3.13,0.878 -5.22,0.878 -2.87,0 -5.66,-0.937 -8.4,-2.828 -2.73,-1.922 -5.17,-4.461 -7.34,-7.66 -2.05,-3.012 -3.73,-6.621 -5.04,-10.898 -1.29,-4.262 -1.95,-8.614 -1.95,-12.992 0,-2.379 0.14,-4.532 0.41,-6.399 0.27,-1.84 0.82,-3.543 1.6,-5.082 0.74,-1.508 1.82,-2.68 3.24,-3.5 1.43,-0.82 3.23,-1.25 5.39,-1.25 2.21,0 4.51,0.609 6.94,1.859 2.42,1.25 5.15,3.442 8.18,6.563 z m -8.54,-37.43 h -0.41 c -0.86,-0.719 -1.89,-1.621 -3.1,-2.711 -1.21,-1.078 -2.6,-2.129 -4.22,-3.109 -1.54,-0.988 -3.2,-1.852 -5.02,-2.578 -1.82,-0.723 -3.79,-1.09 -5.92,-1.09 -5.7,0 -10.19,2.047 -13.44,6.168 -3.26,4.101 -4.88,9.73 -4.88,16.801 0,4.898 0.9,9.668 2.72,14.3 1.81,4.59 4.31,8.75 7.52,12.438 3.02,3.492 6.64,6.332 10.82,8.492 4.18,2.149 8.47,3.231 12.89,3.231 2.79,0 5.47,-0.372 8,-1.122 2.56,-0.761 4.56,-1.601 6.02,-2.55 l 10.86,2.789 0.72,-0.899 -9.02,-38.199 c -0.31,-1.25 -0.65,-2.742 -0.98,-4.5 -0.33,-1.75 -0.51,-3.043 -0.51,-3.859 0,-2.25 0.47,-3.793 1.43,-4.59 0.94,-0.762 2.54,-1.16 4.8,-1.16 0.75,0 1.82,0.117 3.21,0.34 1.38,0.25 2.44,0.488 3.2,0.757 l -0.9,-3.769 c -3.55,-1.43 -6.21,-2.442 -7.95,-3.09 -1.74,-0.621 -3.84,-0.93 -6.34,-0.93 -2.86,0 -5.1,0.821 -6.76,2.481 -1.66,1.66 -2.58,3.789 -2.74,6.359"
         style="fill:#2e2d2d;fill-opacity:1;fill-rule:nonzero;stroke:none"
         id="path98"
         inkscape:connector-curvature="0" /><path
         d="m 1600.81,260.805 -16.54,-71.274 c -0.37,-1.48 -0.71,-2.961 -1.02,-4.492 -0.31,-1.5 -0.49,-2.711 -0.49,-3.648 0,-2.25 0.51,-3.789 1.51,-4.629 1.01,-0.821 2.65,-1.25 4.88,-1.25 0.8,0 1.97,0.097 3.52,0.289 1.56,0.199 2.73,0.449 3.51,0.73 l -0.88,-3.793 c -3.55,-1.429 -6.29,-2.418 -8.2,-3.027 -1.91,-0.59 -4.06,-0.883 -6.48,-0.883 -3.15,0 -5.55,0.82 -7.19,2.442 -1.64,1.64 -2.44,3.671 -2.44,6.082 0,0.91 0.07,1.867 0.25,2.847 0.18,0.981 0.43,2.231 0.74,3.731 l 14.42,62.343 c 0.29,1.25 0.47,2.11 0.56,2.559 l 0.16,1.797 c 0,1.426 -0.24,2.5 -0.72,3.281 l -2.02,1.758 c -0.84,0.332 -1.87,0.586 -3.16,0.703 -1.27,0.098 -2.56,0.254 -3.85,0.41 l 0.82,3.614 22.03,1.308 0.59,-0.898"
         style="fill:#2e2d2d;fill-opacity:1;fill-rule:nonzero;stroke:none"
         id="path100"
         inkscape:connector-curvature="0" /></g></g></svg>